<svg width="136" height="142" viewBox="0 0 136 142" fill="none" xmlns="http://www.w3.org/2000/svg">
<path fill-rule="evenodd" clip-rule="evenodd" d="M93.9804 30.8434C95.0477 30.8434 95.917 31.7179 95.917 32.7934C95.917 33.8664 95.0477 34.7414 93.9804 34.7414C92.9131 34.7414 92.0453 33.8664 92.0453 32.7934C92.0453 31.7179 92.9131 30.8434 93.9804 30.8434ZM93.9804 39.2574C97.5243 39.2574 100.405 36.3553 100.405 32.7934C100.405 29.2283 97.5243 26.3268 93.9804 26.3268C90.438 26.3268 87.5575 29.2283 87.5575 32.7934C87.5575 36.3553 90.438 39.2574 93.9804 39.2574ZM74.4174 30.8434C75.4863 30.8434 76.3525 31.7179 76.3525 32.7934C76.3525 33.8664 75.4863 34.7414 74.4174 34.7414C73.3485 34.7414 72.4807 33.8664 72.4807 32.7934C72.4807 31.7179 73.3485 30.8434 74.4174 30.8434ZM74.4174 39.2574C77.9597 39.2574 80.8418 36.3553 80.8418 32.7934C80.8418 29.2283 77.9597 26.3268 74.4174 26.3268C70.875 26.3268 67.993 29.2283 67.993 32.7934C67.993 36.3553 70.875 39.2574 74.4174 39.2574ZM54.8528 30.8434C55.9217 30.8434 56.7895 31.7179 56.7895 32.7934C56.7895 33.8664 55.9217 34.7414 54.8528 34.7414C53.7871 34.7414 52.9178 33.8664 52.9178 32.7934C52.9178 31.7179 53.7871 30.8434 54.8528 30.8434ZM54.8528 39.2574C58.3967 39.2574 61.2772 36.3553 61.2772 32.7934C61.2772 29.2283 58.3967 26.3268 54.8528 26.3268C51.3104 26.3268 48.4284 29.2283 48.4284 32.7934C48.4284 36.3553 51.3104 39.2574 54.8528 39.2574ZM37.2724 17.1645V48.4195C37.2724 54.6739 42.327 59.8988 48.5409 60.065C49.7586 60.0962 50.7277 61.0983 50.7277 62.3205V76.2079L66.1102 60.7284C66.5314 60.3053 67.1046 60.0682 67.6985 60.0682H99.9852C106.368 60.0682 111.562 54.8432 111.562 48.4195V17.1645C111.562 10.7404 106.368 5.51611 99.9852 5.51611H48.8496C42.4648 5.51611 37.2724 10.7404 37.2724 17.1645ZM46.2383 64.3669V81.6611C46.2383 83.669 48.6629 84.675 50.0706 83.2583L68.6264 64.5842H99.9852C108.843 64.5842 116.05 57.3335 116.05 48.4195V17.1645C116.05 8.2515 108.843 1 99.9852 1H48.8496C39.9913 1 32.7847 8.2515 32.7847 17.1645V48.4195C32.7847 56.3537 38.6438 63.091 46.2383 64.3669ZM127.532 103.531C127.442 103.607 127.369 103.657 127.271 103.725L79.0825 135.326C78.362 135.801 77.6066 135.916 76.7769 135.682L47.0017 127.302C45.6905 126.932 44.4173 126.929 43.1077 127.288L32.0879 130.311V98.6474L48.0198 94.2103L76.5805 101.91C80.1292 102.867 82.2448 106.55 81.2931 110.123C80.343 113.694 76.6803 115.82 73.13 114.863L43.9802 107.005C42.7816 106.683 41.5543 107.397 41.2312 108.602C40.9113 109.805 41.6208 111.044 42.818 111.366L71.9676 119.227C77.4584 120.705 83.2526 117.774 85.2852 112.357L125.227 94.2919C125.83 94.018 126.361 93.9645 127.002 94.1083C131.642 95.1527 131.546 100.184 127.532 103.531ZM27.6002 133.876C27.6002 135.313 26.4394 136.484 25.0079 136.484H8.08152C6.65002 136.484 5.48928 135.313 5.48928 133.876V96.5922C5.48928 95.1558 6.65002 93.9844 8.08152 93.9844H25.0079C26.4394 93.9844 27.6002 95.1558 27.6002 96.5922V133.876ZM134.761 96.0476C133.996 92.8579 131.463 90.4873 127.984 89.7024C126.384 89.3414 124.881 89.4964 123.387 90.171L85.936 107.112C85.4246 102.669 82.286 98.7742 77.7412 97.5463L48.5915 89.6881C48.2051 89.5841 47.7981 89.5865 47.4103 89.6937L31.6366 94.0859C30.6279 91.3904 28.0372 89.4684 25.0079 89.4684H8.08152C4.17655 89.4684 1 92.6631 1 96.5922V133.876C1 137.802 4.17655 141 8.08152 141H25.0079C28.5266 141 31.4513 138.403 31.9993 135.016L44.289 131.646C44.8211 131.499 45.2598 131.499 45.7919 131.649L75.567 140.032C77.6255 140.611 79.7004 140.31 81.5323 139.109L129.721 107.507C129.965 107.346 130.172 107.194 130.397 107.005C133.987 104.007 135.659 99.8098 134.761 96.0476Z" fill="#06A37E" stroke="#06A37E"/>
</svg>
