<svg width="341" height="412" viewBox="0 0 341 412" fill="none" xmlns="http://www.w3.org/2000/svg">
<g opacity="0.05">
<path fill-rule="evenodd" clip-rule="evenodd" d="M256.6 365.471C343.607 283.721 182.864 203.574 216.783 113.809C235.954 65.7207 293.467 49.6913 328.86 83.3531C350.981 102.588 337.709 126.633 315.588 110.603C290.518 88.1619 258.074 99.3825 246.277 129.838C228.58 176.324 299.366 250.059 309.689 293.339C321.487 336.618 291.993 411.957 237.428 411.957H128.3C128.3 397.53 134.199 391.118 145.997 389.515C116.502 360.662 112.078 325.398 144.522 282.118C109.129 314.177 107.654 363.868 129.775 387.912C119.452 394.324 117.977 403.942 116.502 411.957H73.7359C78.16 405.545 82.5841 399.133 89.9577 395.927C94.3818 315.78 53.09 291.736 39.8176 245.25C30.9694 208.383 44.2417 169.912 54.5647 137.853C38.3429 125.03 17.697 147.471 0.000488281 112.206C14.7476 86.559 7.37402 51.2942 38.3429 41.6765C44.2417 25.6471 36.8682 14.4265 29.4947 0C106.179 28.853 117.977 49.6913 125.351 117.015C137.148 206.78 157.794 171.515 215.308 218C269.872 261.28 258.074 309.368 256.6 365.471Z" fill="#021939"/>
</g>
</svg>
