<svg width="413" height="481" viewBox="0 0 413 481" fill="none" xmlns="http://www.w3.org/2000/svg">
<g opacity="0.05">
<path d="M409.086 6.84175C406.828 3.44629 403.501 1.0701 399.737 0.163998C395.14 -0.342664 390.497 0.328521 386.182 2.12376C370.413 6.98544 353.974 8.75511 337.634 7.34984C325.202 5.24158 312.616 4.39112 300.039 4.80939C287.551 6.33366 274.596 13.8098 272.526 25.4233L270.857 28.2541C270.069 27.5583 269.219 26.9504 268.32 26.4395C257.066 31.3608 246.448 37.851 236.734 45.7469C233.395 48.2148 229.722 51.2633 229.455 55.2555C229.508 57.3467 230.036 59.3912 230.991 61.2074C237.265 75.2245 245.586 88.0443 255.632 99.169C257.716 101.536 260.046 103.631 262.577 105.411L262.176 108.242C263.292 114.701 263.784 121.269 263.645 127.84L265.381 127.912C295.209 146.913 329.81 155.146 364.212 151.43L368.553 150.196C363.211 127.767 356.065 103.669 367.017 83.273C374.429 69.482 388.653 60.3364 399.538 48.8677C410.422 37.3272 417.968 19.762 409.086 6.84175Z" fill="#021939"/>
<path d="M355.347 283.462C359.755 269.236 366.099 255.518 370.105 241.146C375.982 218.396 376.987 194.485 373.043 171.247L372.175 171.392C342.277 172.211 312.463 167.599 283.962 157.746C276.149 155.061 268.47 151.94 260.991 148.456L259.522 147.657C258.793 149.371 257.945 151.021 256.984 152.593C250.525 161.34 242.622 168.7 233.679 174.296C168.971 223.508 135.249 300.81 121.158 377.749C117.219 399.017 110.073 425.22 87.5025 429.574C81.3535 430.472 75.0965 429.783 69.2378 427.564C63.3792 425.344 58.0837 421.657 53.7799 416.799C46.2201 407.583 40.8547 396.493 38.1539 384.499C29.4368 355.731 28.2576 324.894 34.7483 295.439C42.3292 264.535 60.8015 238.12 86.167 221.911C91.576 218.499 97.9198 214.797 98.9883 208.773C99.3377 206.065 98.8524 203.307 97.6081 200.93C96.3638 198.554 94.4306 196.692 92.1102 195.635C85.0985 192.659 78.1537 195.925 65.5327 201.151C49.0387 208.047 -36.5702 242.96 17.9203 407.944C39.1556 472.181 96.5843 454.253 116.484 463.108C155.482 466.012 194.502 468.891 233.545 471.746C236.95 472.036 263.661 470.657 264.797 467.608C266.132 464.415 219.589 447.357 208.771 446.922C214.781 438.647 219.188 435.889 225.265 427.615C240.156 407.436 264.663 372.16 249.839 358.151C244.296 352.925 224.53 359.167 216.049 365.918C231.074 349.804 249.839 336.957 266.867 322.585C268.003 358.369 269.116 394.105 270.206 429.792C269.65 441.396 272.029 452.943 277.084 463.181C283.161 473.125 300.79 477.48 312.076 473.052C311.787 465.815 310.056 458.732 307.001 452.293C294.188 417.445 292.057 379.033 300.924 342.763L302.393 342.691C304.931 389.363 310.607 440.317 346.2 473.052C352.343 478.714 362.36 483.722 368.904 478.424C375.715 472.98 371.375 462.673 366.834 455.414C357.592 441.957 350.379 426.987 345.465 411.065C339.121 387.403 342.126 362.579 345.198 338.408C347.007 319.791 350.405 301.396 355.347 283.462ZM212.844 369.33C213.66 368.032 214.704 366.922 215.916 366.063C214.847 367.08 213.846 368.169 212.844 369.33Z" fill="#021939"/>
</g>
</svg>
