<svg width="37" height="35" viewBox="0 0 37 35" fill="none" xmlns="http://www.w3.org/2000/svg">
<path d="M36 34.25H1M1 15L15.2205 3.625C16.1514 2.88036 17.3079 2.47468 18.5 2.47468C19.6921 2.47468 20.8486 2.88036 21.7795 3.625L36 15M24.625 5.375V1.875C24.625 1.64294 24.7172 1.42038 24.8813 1.25628C25.0454 1.09219 25.2679 1 25.5 1H29.875C30.1071 1 30.3296 1.09219 30.4937 1.25628C30.6578 1.42038 30.75 1.64294 30.75 1.875V10.625M4.5 34.25V12.375M32.5 34.25V12.375" stroke="white" stroke-width="1.5" stroke-linecap="round"/>
<path d="M23.75 34.25V25.5C23.75 23.0255 23.75 21.7882 22.98 21.02C22.2135 20.25 20.9762 20.25 18.5 20.25C16.0255 20.25 14.7882 20.25 14.02 21.02C13.25 21.7865 13.25 23.0238 13.25 25.5V34.25M22 12.375C22 13.3033 21.6313 14.1935 20.9749 14.8499C20.3185 15.5063 19.4283 15.875 18.5 15.875C17.5717 15.875 16.6815 15.5063 16.0251 14.8499C15.3687 14.1935 15 13.3033 15 12.375C15 11.4467 15.3687 10.5565 16.0251 9.90013C16.6815 9.24375 17.5717 8.875 18.5 8.875C19.4283 8.875 20.3185 9.24375 20.9749 9.90013C21.6313 10.5565 22 11.4467 22 12.375Z" stroke="white" stroke-width="1.5"/>
</svg>
