<svg width="37" height="33" viewBox="0 0 37 33" fill="none" xmlns="http://www.w3.org/2000/svg">
<path d="M26.2778 8.75H34.0556C34.5713 8.75 35.0658 8.95413 35.4305 9.31748C35.7951 9.68083 36 10.1736 36 10.6875V32L29.5192 26.6351C29.1694 26.3458 28.7292 26.1875 28.2747 26.1875H12.6667C12.151 26.1875 11.6564 25.9834 11.2917 25.62C10.9271 25.2567 10.7222 24.7639 10.7222 24.25V18.4375M26.2778 8.75V2.9375C26.2778 2.42364 26.0729 1.93083 25.7083 1.56748C25.3436 1.20413 24.849 1 24.3333 1H2.94444C2.42875 1 1.93417 1.20413 1.56951 1.56748C1.20486 1.93083 1 2.42364 1 2.9375V24.25L7.48083 18.8831C7.83083 18.5964 8.27028 18.4375 8.72528 18.4375H10.7222M26.2778 8.75V16.5C26.2778 17.0139 26.0729 17.5067 25.7083 17.87C25.3436 18.2334 24.849 18.4375 24.3333 18.4375H10.7222" stroke="white" stroke-width="2" stroke-linecap="round" stroke-linejoin="round"/>
</svg>
